<svg width="35" height="35" fill="none" xmlns="http://www.w3.org/2000/svg"><g clip-path="url(#a)"><path d="M12.61 10.244a.764.764 0 0 0-1.141-.07l-1.163 1.164c-.544.544-.744 1.315-.507 1.991a19.764 19.764 0 0 0 4.69 7.434 19.767 19.767 0 0 0 7.433 4.69c.677.236 1.447.036 1.992-.507l1.163-1.163a.762.762 0 0 0-.071-1.142l-2.595-2.018a.762.762 0 0 0-.653-.138l-2.464.616a1.963 1.963 0 0 1-1.864-.517l-2.763-2.764a1.963 1.963 0 0 1-.517-1.864l.616-2.464a.763.763 0 0 0-.137-.652l-2.018-2.596Zm-1.99-.919a1.963 1.963 0 0 1 2.938.184l2.018 2.594c.37.476.5 1.096.355 1.68l-.616 2.464a.763.763 0 0 0 .2.724l2.765 2.764a.763.763 0 0 0 .724.2l2.463-.615a1.963 1.963 0 0 1 1.68.354l2.595 2.018a1.963 1.963 0 0 1 .183 2.938l-1.163 1.163c-.833.832-2.077 1.198-3.237.79a20.963 20.963 0 0 1-7.886-4.973 20.964 20.964 0 0 1-4.972-7.885c-.408-1.159-.042-2.404.79-3.236l1.164-1.164h-.002Z" fill="#53AACE"/></g><circle cx="17.5" cy="17.75" r="16.313" stroke="#53AACE" stroke-width="1.125"/><defs><clipPath id="a"><path fill="#fff" transform="translate(8.5 8.75)" d="M0 0h18v18H0z"/></clipPath></defs></svg>